<svg width="1487" height="1440" viewBox="0 0 1487 1440" fill="none" xmlns="http://www.w3.org/2000/svg">
<g clip-path="url(#clip0_914_27307)">
<mask id="mask0_914_27307" style="mask-type:luminance" maskUnits="userSpaceOnUse" x="0" y="0" width="2560" height="1440">
<path d="M0 -4.29153e-05H2560V1440H0V-4.29153e-05Z" fill="white"/>
</mask>
<g mask="url(#mask0_914_27307)">
<path d="M1252.07 249.793L1243.74 248.09C1224.5 247.232 1207.04 243.421 1188.26 238.196C1191.91 240.696 1196.11 242.898 1200.43 244.052C1217.8 248.69 1234.99 251.101 1252.07 249.793ZM1287.67 160.413L1266.37 163.237C1244.99 163.249 1224.45 161.265 1203.91 155.496L1182.37 146.913L1205.21 220.92C1221.29 227.549 1237.71 229.904 1254.44 226.304L1287.67 160.413ZM1246.2 157.845L1264.91 158.424L1273.7 149.158L1268.69 158.55L1286.21 155.921C1287.43 155.737 1290.12 153.464 1289.65 152.6L1287.44 148.512C1274.01 138.932 1258.42 133.981 1241.91 131.545C1224.97 128.817 1208.36 128.488 1191.77 132.86C1188.06 133.836 1184.25 135.914 1181.69 139.288C1184.98 143.901 1190.21 145.929 1195.38 147.448L1217.59 153.976C1216.06 146.636 1214.08 141.538 1214.9 133.7C1217.76 140.502 1218.46 146.65 1219.36 154.292L1244.83 157.77C1246.76 150.508 1248.05 144.56 1251.98 138.381C1251.84 146.141 1248.84 151.077 1246.2 157.845ZM1292.37 246.613C1266.17 260.546 1223.76 252.785 1194.29 245.738C1178.11 241.872 1155.03 233.172 1156.4 218.888C1157.79 204.48 1176.98 201.596 1193.68 200.373L1176.09 141.397C1174.85 137.248 1179.87 131.925 1183.21 130.353C1210.19 117.662 1265.08 125.137 1289.68 143.953C1294.52 147.652 1296.35 153.861 1293.66 159.254L1268.91 209.044C1284.21 213.458 1301.74 223.296 1299.86 236.345C1299.38 239.645 1296.24 244.553 1292.37 246.613Z" fill="black"/>
</g>
<mask id="mask1_914_27307" style="mask-type:luminance" maskUnits="userSpaceOnUse" x="0" y="0" width="2560" height="1440">
<path d="M0 -4.29153e-05H2560V1440H0V-4.29153e-05Z" fill="white"/>
</mask>
<g mask="url(#mask1_914_27307)">
<path d="M1203.05 166.836C1208.28 177.171 1213.62 204.013 1212.53 203.675L1210.58 203.068C1207.93 190.932 1203.01 179.773 1203.05 166.836Z" fill="black"/>
</g>
<mask id="mask2_914_27307" style="mask-type:luminance" maskUnits="userSpaceOnUse" x="0" y="0" width="2560" height="1440">
<path d="M0 -4.29153e-05H2560V1440H0V-4.29153e-05Z" fill="white"/>
</mask>
<g mask="url(#mask2_914_27307)">
<path d="M1231.51 208.242C1230.1 195.884 1231.48 184.65 1234.99 172.745C1236.34 184.708 1235.63 196.594 1231.51 208.242Z" fill="black"/>
</g>
<mask id="mask3_914_27307" style="mask-type:luminance" maskUnits="userSpaceOnUse" x="0" y="0" width="2560" height="1440">
<path d="M0 -4.29153e-05H2560V1440H0V-4.29153e-05Z" fill="white"/>
</mask>
<g mask="url(#mask3_914_27307)">
<path d="M1249.79 208.146C1252.54 196.281 1257.22 185.836 1263.81 175.24C1261.66 186.79 1256.75 197.877 1249.79 208.146Z" fill="black"/>
</g>
<mask id="mask4_914_27307" style="mask-type:luminance" maskUnits="userSpaceOnUse" x="0" y="0" width="2560" height="1440">
<path d="M0 -4.29153e-05H2560V1440H0V-4.29153e-05Z" fill="white"/>
</mask>
<g mask="url(#mask4_914_27307)">
<path d="M296.474 499.531C327.08 499.978 357.122 491.642 381.654 473.777C393.286 465.306 407.173 450.325 400.996 437.573C397.962 447.283 392.794 455.477 384.716 462.591C357.692 486.394 314.006 497.955 278.794 491.067C271.51 489.642 265.524 486.794 258.125 483.635C262.33 494.962 283.51 499.342 296.474 499.531ZM256.454 477.531L254.068 474.469C238.078 484.385 219.016 479.149 208.756 464.105L195.049 442.501C188.962 432.907 179.022 426.859 167.689 426.578L162.369 432.731C190.09 428.306 194.69 457.029 208.69 472.389C228.956 494.622 258.524 480.187 256.454 477.531ZM260.682 481.282C268.065 485.481 276.328 488.006 284.673 488.895C315.721 492.206 346.277 484.735 372.38 467.91C384.688 459.977 397.241 446.667 398.769 432.463C384.292 397.887 368.526 362.71 345.442 333.585C342.365 339.031 339.636 343.481 334.941 346.713C317.405 358.782 295.817 364.431 274.574 362.983C268.196 362.549 263.425 360.231 257.87 355.918L254.742 371.562C250.972 404.427 250.841 437.046 256.262 469.793L260.682 481.282ZM262.154 353.438C275.121 365.722 324.745 354.917 339.002 336.609C347.537 325.65 321.669 314.047 302.605 318.913C301.038 319.313 302.685 324.475 303.474 325.673C301.478 330.598 292.961 333.218 288.753 330.234L288.805 325.595C288.816 324.57 285.561 323.158 284.477 323.625C269.13 330.235 255.841 347.458 262.154 353.438ZM402.626 460.587C375.49 497.079 306.246 516.159 264.91 497.917C259.416 495.491 255.726 491.213 252.916 485.646C231.43 494.615 209.169 486.109 198.237 466.301L185.749 446.022C179.244 435.461 166.841 434.166 155.95 439.41C154.472 440.122 150.716 439.925 149.413 439.125C147.925 438.209 147.708 434.11 148.901 432.341C154.64 423.839 164.706 420.575 174.72 422.754C185.736 425.15 194.244 432.566 200.298 441.965L214.082 463.358C222.032 475.698 238.294 478.558 250.36 471.278C245.656 438.009 244.753 405.701 249.016 372.891C250.098 364.566 252.822 357.119 254.994 349.241C256.304 344.491 257.43 339.806 260.441 335.801C266.16 328.187 274.021 322.937 282.341 318.767C282.058 316.29 282.053 311.749 283.314 310.118C286.189 306.401 294.942 303.694 299.24 305.665C301.061 306.499 302.94 309.918 304.102 312.698C316.941 312.181 332.506 312.525 341.978 322.623L354.518 335.993C360.35 325.542 372.216 321.759 382.725 327.038C388.265 329.821 393.602 334.325 397.201 339.529L413.052 362.445C418.684 370.587 425.972 372.813 434.566 375.61C439.985 377.378 438.724 387.107 436.07 390.479C432.606 394.881 426.042 397.159 419.814 394.738C403.868 388.538 398.1 365.453 380.476 347.03C375.153 341.467 366.97 342.122 362.765 347.721C380.138 373.953 392.268 402.003 404.234 430.618C408.592 441.037 409.924 450.773 402.626 460.587Z" fill="black"/>
</g>
<mask id="mask5_914_27307" style="mask-type:luminance" maskUnits="userSpaceOnUse" x="0" y="0" width="2560" height="1440">
<path d="M0 -4.29153e-05H2560V1440H0V-4.29153e-05Z" fill="white"/>
</mask>
<g mask="url(#mask5_914_27307)">
<path d="M782.049 398.426C767.002 409.864 747.933 404.78 737.391 389.776C730.071 393.69 723.503 395.636 716.019 392.639C708.305 389.548 701.805 381.596 703.809 374.447C705.206 369.464 707.583 385.762 718.259 389.079C724.051 390.879 731.789 390.303 735.65 384.652L737.321 368.796C728.509 361.984 722.351 352.999 726.566 345.592C732.545 335.084 764.801 343.471 764.457 355.796C764.207 364.714 752.753 367.8 741.798 369.972C740.817 373.998 738.875 381.075 740.203 385.363C743.882 397.242 767.178 406.988 780.487 393.627L782.999 394.302C783.845 394.528 782.918 397.764 782.049 398.426Z" fill="black"/>
</g>
<mask id="mask6_914_27307" style="mask-type:luminance" maskUnits="userSpaceOnUse" x="0" y="0" width="2560" height="1440">
<path d="M0 -4.29153e-05H2560V1440H0V-4.29153e-05Z" fill="white"/>
</mask>
<g mask="url(#mask6_914_27307)">
<path d="M749.418 412.718L751.412 412.293C751.502 412.273 752.07 413.882 752.253 414.369C742.177 420.893 725.618 417.757 721.852 404.462C730.374 411.618 739.577 414.821 749.418 412.718Z" fill="black"/>
</g>
<mask id="mask7_914_27307" style="mask-type:luminance" maskUnits="userSpaceOnUse" x="0" y="0" width="2560" height="1440">
<path d="M0 -4.29153e-05H2560V1440H0V-4.29153e-05Z" fill="white"/>
</mask>
<g mask="url(#mask7_914_27307)">
<path d="M838.045 289.266L816.457 279.362C823.962 275.622 835.197 280.231 838.045 289.266Z" fill="black"/>
</g>
<mask id="mask8_914_27307" style="mask-type:luminance" maskUnits="userSpaceOnUse" x="0" y="0" width="2560" height="1440">
<path d="M0 -4.29153e-05H2560V1440H0V-4.29153e-05Z" fill="white"/>
</mask>
<g mask="url(#mask8_914_27307)">
<path d="M733.595 261.236L710.598 261.693C716.208 255.672 727.814 253.824 733.595 261.236Z" fill="black"/>
</g>
<mask id="mask9_914_27307" style="mask-type:luminance" maskUnits="userSpaceOnUse" x="0" y="0" width="2560" height="1440">
<path d="M0 -4.29153e-05H2560V1440H0V-4.29153e-05Z" fill="white"/>
</mask>
<g mask="url(#mask9_914_27307)">
<path d="M814.317 812.91L840.142 794.504L841.413 659.737C785.362 656.704 730.484 655.516 674.206 656.663L667.97 791.042L691.48 809.774C732.516 812.498 772.396 813.485 814.317 812.91ZM689.41 815.197L662.898 793.15C663.833 745.526 666.745 699.444 670.637 652.388L687.968 650.965C740.42 648.96 792.766 650.663 845.21 655.107L845.482 671.916L845.64 769.836L844.904 797.441L815.857 818.269C773.51 819.846 732.494 818.098 689.41 815.197Z" fill="black"/>
</g>
<mask id="mask10_914_27307" style="mask-type:luminance" maskUnits="userSpaceOnUse" x="0" y="0" width="2560" height="1440">
<path d="M0 -4.29153e-05H2560V1440H0V-4.29153e-05Z" fill="white"/>
</mask>
<g mask="url(#mask10_914_27307)">
<path d="M864.666 579.986C864.666 577.519 862.666 575.519 860.2 575.519C857.733 575.519 855.734 577.519 855.734 579.986C855.734 582.453 857.733 584.453 860.2 584.453C862.666 584.453 864.666 582.453 864.666 579.986ZM867.553 579.809C867.553 583.962 864.186 587.33 860.032 587.33C855.878 587.33 852.512 583.962 852.512 579.809C852.512 575.655 855.878 572.287 860.032 572.287C864.186 572.287 867.553 575.655 867.553 579.809Z" fill="black"/>
</g>
<mask id="mask11_914_27307" style="mask-type:luminance" maskUnits="userSpaceOnUse" x="0" y="0" width="2560" height="1440">
<path d="M0 -4.29153e-05H2560V1440H0V-4.29153e-05Z" fill="white"/>
</mask>
<g mask="url(#mask11_914_27307)">
<path d="M752.537 680.563L692.185 679.799C689.432 679.764 687.477 680.106 686.293 677.799C733.534 675.784 779.801 676.407 827.182 681.803C802.589 683.032 778.164 680.887 752.537 680.563Z" fill="black"/>
</g>
<mask id="mask12_914_27307" style="mask-type:luminance" maskUnits="userSpaceOnUse" x="0" y="0" width="2560" height="1440">
<path d="M0 -4.29153e-05H2560V1440H0V-4.29153e-05Z" fill="white"/>
</mask>
<g mask="url(#mask12_914_27307)">
<path d="M586.084 1255.84L609.065 1260.86C613.233 1261.78 618.187 1265.8 622.684 1265.93C644.864 1266.56 666.645 1263.6 686.957 1254.88C695.353 1251.28 703.203 1248.35 712.381 1247.27C725.488 1245.72 736.911 1242.39 748.767 1236.5L749.747 1224.41C740.543 1229.36 733.023 1231.74 723.796 1233.92L683.781 1243.37C643.163 1252.97 603.817 1258.45 564.567 1240.6C564.287 1245.19 565.309 1250.7 567.464 1254.91C574.016 1254.29 579.407 1254.39 586.084 1255.84ZM714.437 1175.94C722.675 1179.48 733.591 1174.08 735.337 1165.16C723.736 1167.54 712.391 1167.61 700.271 1166.18C704.297 1169.55 708.885 1173.55 714.437 1175.94ZM877.431 1174.63L888.715 1161.96C877.245 1163.02 867.627 1163.46 856.055 1161.46C856.313 1170.72 861.037 1179.16 868.861 1179.11C871.213 1179.09 875.509 1176.78 877.431 1174.63ZM670.416 1235.51C665.6 1222.99 662.321 1212.88 653.94 1203.96C634.435 1183.18 602.691 1181.01 580.504 1199.52C569.8 1208.45 563.64 1223.14 565.351 1237.17C600.812 1253.07 645.361 1251.04 682.935 1241.47L725.267 1230.7C733.901 1228.5 741.203 1226.01 749.141 1220.96L745.973 1188.79C745.773 1186.76 744.027 1184.7 742.189 1183.82C746.124 1180.04 746.897 1173.44 741.72 1169.5L733.317 1176.97C724.531 1184.78 714.215 1182.21 705.105 1176.52L687.5 1165.51L680.173 1168.76L681.675 1162.84C666.808 1157.19 651.709 1154.75 636.884 1158.59L633.844 1166.5L630.225 1161.4L626.292 1169.9L633.657 1167.32C644.344 1166.43 657.029 1167.11 664.827 1176.16L648.373 1174.09C646.489 1173.85 643.54 1173.09 642.507 1172.73L649.172 1170.52L627.984 1170.84L623.391 1176.18L633.692 1177.08C641.048 1177.72 649.944 1178.23 653.876 1186.38C642.64 1182.35 633.58 1179.49 622.705 1179.39C620.145 1179.36 618.143 1179.14 616.013 1181.95C645.331 1183.77 669.581 1206.44 670.416 1235.51ZM914.444 1251.95C904.001 1248.26 894.867 1243.72 885.597 1238.3C890.613 1238.4 894.927 1240.17 898.976 1242.47C914.115 1251.07 929.875 1255.76 947.399 1257.09C974.085 1259.12 1007.4 1258.22 1030.82 1245.07C1030.45 1217.51 1008.01 1196.71 980.468 1197.27C949.508 1197.89 925.856 1217.99 916.363 1248.39C915.845 1229.77 928.532 1214.18 943.423 1204.25C956.512 1195.52 971.715 1192.5 987.916 1192.7L971.136 1172.96C973.068 1165.48 971.808 1157.48 965.607 1153.18C964.433 1159.22 963.387 1163.24 960.909 1167.91C946.515 1164.31 936.059 1170.1 921.956 1173.86C932.191 1162.81 947.663 1160.92 960.575 1164.22C961.416 1159.67 962.383 1154.34 960.497 1151.19C955.135 1142.23 919.475 1146.54 904.805 1156.57C907.693 1160.05 909.332 1162.28 910.691 1165.73L901.073 1159.17C887.031 1167.12 881.815 1184.07 868.327 1184.2C859.229 1184.29 853.212 1177.53 850.141 1168.91C846.173 1172.19 849.011 1177.89 849.565 1181.76C847.553 1194.49 846.004 1206.59 846.584 1219.95C855.767 1226.43 864.912 1229.24 875.827 1234.36C864.821 1233.8 854.928 1229.66 845.56 1222.35L846.324 1235C857.567 1241.51 868.671 1246 881.5 1248.22C892.597 1250.81 901.619 1256.87 910.041 1264.63C928.252 1272.79 948.041 1276.36 967.975 1275.17C979.604 1270.52 991.003 1268.22 1003.23 1266.4C1011.38 1264.71 1018.59 1264.1 1027.19 1264.5C1030.37 1260.19 1031.36 1253.93 1031.2 1248.49C998.471 1266.33 949.281 1264.25 914.444 1251.95ZM725.715 1155.17C730.481 1151.06 732.561 1136.05 728.627 1132.02L728.141 1142.26L725.715 1155.17ZM635.699 1134.73L636.315 1126.4L633.649 1134.5C632.036 1139.4 633.257 1145.63 637.315 1148.37C635.883 1143.86 635.343 1139.54 635.699 1134.73ZM861.54 1128.42L866.316 1125.83L849.613 1124.99C853.329 1126.99 856.773 1126.79 859.901 1127.18C860.101 1135.69 860.707 1143.57 865.608 1149.52L861.54 1128.42ZM655.819 1125.76C658.796 1124.94 657.291 1123.93 655.133 1124.04C651.54 1131.66 650.372 1140.66 653.909 1148.34L655.819 1125.76ZM931.653 1114.38C930.964 1114.44 929.616 1116.16 930.471 1115.83C936.141 1122.42 935.347 1129.98 936.025 1137.47C940.329 1129.89 935.488 1113.99 931.653 1114.38ZM953.591 1116.16L961.84 1115.51C954.572 1112.39 948.159 1111.75 941.259 1113.16L952.116 1115.61L954.028 1137.87C957.173 1130.79 956.087 1122.68 953.591 1116.16ZM692.436 1119.51L650.159 1103.91C641.788 1100.82 632.776 1098.72 623.771 1102.05L654.169 1107.97L692.436 1119.51ZM945.483 1095.29L967.329 1091.33C958.777 1089.6 951.012 1090.83 942.875 1092.82C925.723 1097.03 909.253 1103.17 894.483 1111.28L945.483 1095.29ZM979.865 946.252L965.712 941.074L967.187 952.006L979.865 946.252ZM996.248 824.413C1002.83 817.932 1009.2 813.577 1017.65 809.838C1009.33 794.948 1000.35 780.994 989.263 768.325C977.835 755.932 967.128 743.566 952.027 735.232C956.528 742.045 963.009 745.593 965.267 753.688L949.067 738.501C949.751 745.224 954.273 748.013 957.695 752.668C973.953 774.792 985.577 799.573 996.248 824.413ZM1003.58 750.19C1000.04 741.977 996.881 738.521 991.937 733.249L976.615 731.752L955.027 727.332C954.141 727.15 952.452 729.896 953.051 730.281L955.711 731.993L992.053 749.021C995.761 750.76 999.744 751.076 1003.58 750.19ZM945.36 731.536C952.956 725.981 951.156 717.572 946.784 711.845L945.36 731.536ZM1007.23 747.132L1015.57 721.418C999.827 708.6 974.259 707.865 954.699 715.876L955.287 720.861C977.165 716.926 997.28 728.624 1007.23 747.132ZM944.671 634.64L936.212 627.393L915.431 600.752C919.963 613.009 928.131 622.473 936.624 631.809C939.452 633.466 941.505 634.516 944.671 634.64ZM871.507 593.826L875.488 567.829L849.145 564.878L846.649 591.365L871.507 593.826ZM959.729 823.168L940.988 734.07L937.093 738.092L935.848 734.17C935.529 733.169 938.377 731.433 939.379 730.542L941.793 712.028L931.964 700.21C912.305 676.576 898.244 649.864 890.524 619.961L879.856 567.91L874.548 597.749C863.071 597.501 854.004 596.498 843.155 594.18L845.307 565.974C787.951 572.74 732.213 570.212 676.859 558.9C667.433 556.974 657.916 559.717 648.507 559.184L625.203 636.52C620.992 650.496 627.644 680.229 623.397 688.114C619.352 695.622 618.821 703.526 620.268 712.206L604.443 807.625L586.359 946.928C690.529 973.921 795.216 980.588 901.235 960.338L935.521 938.684C939.592 936.112 944.725 932.95 949.713 933.181C961.024 933.702 970.989 936.99 981.789 940.644L959.729 823.168ZM590.327 658.482C591.137 658.365 593.016 657.649 592.739 657.169L591.648 655.281C572.261 621.702 554.888 587.673 541.061 551.334C539.733 547.844 540.636 545.748 542.135 541.817L536.353 545.633C541.775 562.42 548.055 577.661 555.293 593.813C565.996 616.041 577.444 636.797 590.327 658.482ZM627.052 598.018L628.753 549.273C628.9 545.072 630.649 540.657 628.489 536.844C624.756 564.956 623.209 591.866 623.999 620.13C627.497 613.662 626.764 606.258 627.052 598.018ZM970.004 640.726C973.771 617.208 980.704 596.301 990.419 575.496C1000.08 554.804 1010.85 535.992 1025.67 518.762C1022.57 518.669 1020.69 520.282 1018.88 522.505C993.615 553.546 973.432 598.192 968.079 638.03C967.927 639.157 969.103 641.013 970.004 640.726ZM279.185 581.937C271 578.808 269.281 568.634 265.967 563.088C265.127 561.681 261.165 562.113 260.34 563.361C255.807 570.218 269.845 582.829 280.101 583.042C289.287 595.054 300.24 597.52 314.44 596.201C306.417 589.873 296.829 587.516 294.521 577.782L310.9 590.324C316.329 594.482 324.831 599.102 331.935 599.178L376.583 599.656C408.812 623.989 450.264 653.042 487.316 666.385C496.881 669.83 507.009 669.794 516.348 666.141L545.721 654.649C531.12 630.221 519.593 605.61 509.877 579.332L503.189 583.353L504.176 587.948C492.097 582.993 480.748 578.044 468.12 574.608L402.923 556.862C398.289 541.514 386.192 530.33 370.344 527.116C364.184 525.866 359.217 522.036 354.348 518.318L344.836 511.054C341.956 508.856 337.288 510.929 336.152 514.209C333.895 520.73 336.708 526.586 341.375 531.277L349.661 539.603C346.307 544.026 342.271 551.164 337.351 552.517L320.019 557.285L308.465 560.166C309.688 562.393 312.911 566.609 314.969 566.298C319.592 564.848 324.408 561.678 330.357 562.49C327.051 564.842 323.837 566.349 319.737 568.413C323.755 569.628 327.843 571.221 329.891 575.622L311.451 570.287C304.24 565.353 304.147 554.852 291.673 555.648L290.967 543.137C295.42 549.856 294.948 554.328 302.68 554.949C301.951 545.469 297.552 537.122 292.637 538.476C287.496 539.89 286.851 548.726 288.88 556.369L293.961 575.504C277.696 571.116 288.057 556.232 276.291 547.738C274.836 546.688 270.612 546.089 269.432 547.36C263.372 553.882 274.967 570.816 279.185 581.937ZM876.355 563.146C879.779 539.049 884.177 517.557 890.305 495.694C894.844 481.237 899.419 468.346 906.356 454.179L882.445 447.776C864.532 482.842 855.523 522.717 849.685 560.66L876.355 563.146ZM676.956 554.058C679.893 516.181 686.639 479.809 697.844 444.6L673.237 453.025C661.7 486.332 655.745 519.844 652.38 554.213L676.956 554.058ZM1276.19 458.354C1276.01 454.97 1274.94 447.863 1273.27 444.346C1272.67 443.091 1268.86 442.65 1267.79 443.376C1262.26 447.121 1263.85 453.086 1265.55 460.505L1276.19 458.354ZM1244.76 517.421C1250.88 515.252 1255.56 511.134 1260 507.064C1267.8 499.917 1271.93 490.557 1278.27 480.949C1279.35 489.334 1272.68 493.98 1269.01 501.126L1288.59 488.24C1294.68 484.228 1301.33 454.905 1296.9 442.913C1287.39 440.776 1286.35 454.148 1285.67 466.714L1278.39 476.376L1276.63 463.949C1276.23 461.117 1269.2 461.106 1267.25 463.609C1259.08 474.07 1259.09 483.41 1248.58 486.525L1241.5 492.581C1242.28 482.298 1255.43 482.161 1255.75 474.717L1242.13 479.464C1243.93 473.109 1250.58 474.913 1255.29 472.685C1259.47 470.706 1263.12 462.732 1261.53 458.676C1258.15 450.066 1260.08 442.445 1267.18 438.402C1266.91 434.024 1262.9 427.708 1258.28 429.618C1246.22 434.602 1260.92 455 1249.44 465.893L1222.7 471.161C1224.51 473.662 1226.14 475.89 1226.82 479.117L1212.39 465.084L1219.47 447.633C1221.46 442.722 1219.58 433.698 1214.03 432.69C1208.13 431.619 1203.78 438.276 1201.9 443.008C1198.21 452.326 1192.75 459.332 1184.63 464.924C1171.33 474.077 1163.39 487.83 1161.61 504.501L1094.45 537.665C1082.07 543.778 1071.87 550.466 1061.15 559.053L1062.87 553.596L1047.47 545.588C1031.27 570.706 1019.4 596.549 1009.65 624.694L1056.28 638.804C1066.71 641.96 1076.61 640.038 1086.18 634.464C1123.28 612.85 1159.12 577.284 1187.6 544.732L1196.53 534.523L1244.76 517.421ZM807.425 311.789C807.421 311.165 806.868 309.498 806.284 309.03C802.631 306.103 787.477 314.962 787.137 326.352C792.447 326.22 793.915 315.125 807.425 311.789ZM934.112 384.653C939.133 382.642 944.136 378.989 947.331 373.953C966.344 343.988 966.34 328.301 953.816 294.646C946.873 309.905 940.869 325.725 925.841 329.988L934.623 361.02C936.752 368.541 935.399 375.668 934.112 384.653ZM915.533 404.005C915.833 403.538 917.535 402.588 917.787 403.061L919.635 406.516C924.565 397.858 926.231 388.736 928.227 378.476L929.724 370.776L928.204 358.794C926.991 349.238 923.208 340.094 919.651 331.142L861.288 336.536L849.193 337.832C848.708 350.861 840.825 362.362 830.32 367.995C818.044 374.578 804.508 374.057 793 367.012L790.868 369.448C789.503 366.262 787.931 362.861 786.033 360.904C776.667 351.241 775.301 338.429 776.887 326.286C769.092 316.142 753.768 312.638 742.689 317.929C740.164 328.544 734.885 336.358 725.733 341.212C717.945 345.341 713.532 349.901 707.629 356.78C707.931 353.38 709.204 351.093 711.572 347.152C699.123 347.821 687.244 342.409 680.708 332.848C673.421 322.19 671.7 309.868 676.536 297.414L666.597 286.181C663.581 294.434 660.651 299.855 656.165 306.231L648.877 316.594C653.593 319.268 642.727 328.758 642.324 343.121L647.039 342.284C644.227 358.848 647.431 374.673 654.897 388.424L657.167 385.94C657.449 385.63 658.06 387.68 658.32 388.133C678.257 423.053 718.521 440.802 758.063 451.036C742.18 454.041 727.204 447.77 712.611 441.922L714.912 453.018C722.148 463.776 733.457 470.184 746.388 473.786C782.22 483.77 821.3 475.694 851.469 454.102C841.784 453.542 833.78 458.328 825.339 453.157L854.725 446.712C857.503 446.102 859.128 445.888 861.215 446.88C870.313 445.472 878.047 440.24 885.824 435.552C893.428 430.968 901.016 426.513 905.915 418.917L915.533 404.005ZM704.741 287.962L702.813 284.125C693.273 285.597 683.777 292.281 684.9 303.106C691.568 296.448 695.021 289.692 704.741 287.962ZM925.881 328.81C934.779 322.866 939.551 315.89 944.36 308.354L952.397 290.122L933.259 256.453C926.54 271.133 919.491 287.5 906.66 296.004L925.881 328.81ZM906.167 294.602C918.345 282.376 924.899 268.509 930.965 253.932C922.68 243.016 914.107 233.254 904.073 224.434C896.952 239.886 890.58 253.741 880.185 266.127L906.167 294.602ZM779.213 320.498C788.725 298.534 813.881 291.872 832.663 304.569C842.101 310.95 847.604 320.138 849.181 331.608L860.008 331.461L917.387 326.494C902.224 294.046 877.591 267.641 847.032 248.936C814.483 229.013 777.987 219.853 739.972 223.526C720.436 225.413 702.823 232.141 687.241 243.904C679.236 255.54 673.123 267.118 668.215 280.278L678.824 291.889C685.74 281.6 695.26 275.814 706.079 275.089C725.828 273.764 742.613 289.746 743.024 312.054C755.965 307.966 768.052 311.328 779.213 320.498ZM952.541 222.798C950.701 220.926 945.783 219.766 943.904 219.858C948.368 229.808 950.991 238.294 953.195 248.738C959.981 241.141 959.973 230.354 952.541 222.798ZM878.704 264.437C888.657 250.418 895.596 236.894 901.837 222.24C891.131 213.142 881.207 205.885 869.717 198.942L847.329 241.962L878.704 264.437ZM681.669 241.46L699.132 229.32C695.411 214.073 704.163 198.509 712.396 183.59C703.169 188.057 693.744 192.505 686.847 199.873C675.927 211.537 666.249 242.466 671.376 258.744L677.091 249.412C678.671 246.832 678.945 243.353 681.669 241.46ZM845.708 240.766C852.641 225.25 859.356 211.925 867.76 197.811C856.011 191.678 844.381 186.336 832.012 182.077C823.684 196.516 816.488 209.951 811.537 225.523L845.708 240.766ZM809.661 224.86C812.081 215.405 814.932 207.322 819.077 199.894L829.353 181.48C818.184 177.56 805.825 174.958 792.953 173.386C785.417 185.458 779.612 196.841 774.925 210.201C774.301 211.98 774.353 216.476 774.701 217.549L809.661 224.86ZM735.34 218.023C733.324 202.262 743.04 186.582 751.388 173.21C739.581 174.876 728.939 177.394 717.6 181.05C711.04 191.254 706.128 201.484 702.169 212.973C701.059 217.889 700.577 222.916 701.291 228.13C713.035 222.934 723.809 219.835 735.34 218.023ZM771.745 217.099L773.764 205.385C777.849 193.518 783.303 183.745 790.356 173.096L755.173 172.526C747.924 182.64 742.996 192.918 738.853 204.764C737.823 209.068 737.332 214.054 737.812 217.725C749.981 216.543 759.973 216.409 771.745 217.099ZM987.171 216.12C980.952 204.169 972.017 195.724 959.791 191.518C958.092 190.934 955.848 188.801 954.735 187.258C944.763 184.053 933.525 186.545 924.4 191.958C931.156 199.077 936.28 206.063 940.867 214.506C950.18 213.771 958.488 218.515 961.708 227.61L963.095 231.526C963.392 232.365 961.724 233.632 960.897 234.462C962.584 242.93 958.905 251.293 950.4 255.962C947.875 239.478 941.983 226.185 935.045 211.627L921.817 190.925C921.149 189.878 922.633 187.193 923.601 186.313C900.827 164.986 871.645 151.984 840.428 147.956C807.327 143.685 763.404 150.644 735.308 169.814C819.195 154.193 900.708 193.706 945.289 264.046C953.265 276.632 958.247 288.682 963.289 302.666L963.663 287.94L958.963 286.461C958.227 286.229 958.529 283.489 959.412 283.266C967.319 281.277 974.34 276.04 979.497 269.114L984.897 261.862C992.573 247.962 990.827 231.997 984.301 218.164L987.171 216.12ZM720.439 173.138L738.973 160.833C730.215 160.04 726.408 166.721 719.963 171.005C722.861 157.874 736.06 155.514 746.372 157.396L775.571 146.306C768.88 138.629 755.435 130.829 750.388 134.705C738.051 133.324 724.92 136.142 715.18 143.833C715.368 146.19 714.543 147.41 712.843 149.036C702.908 158.532 694.831 171.798 697.275 184.38L720.439 173.138ZM842.863 1182.65C840.383 1174.18 839.58 1165.1 845.229 1157.97L847.911 1155.22C848.651 1154.46 846.595 1151.82 846.321 1150.64L841.515 1129.78C826.304 1121.02 805.545 1106 808.259 1089.1L813.032 1059.36L795.324 979.45L779.66 980.017L769.948 1064.06L776.307 1081.68C784.268 1103.75 768.935 1119.28 749.871 1131.47L745.977 1155.65C753.281 1162.55 754.289 1172.69 751.111 1182.3L755.236 1216.24C757.217 1225.04 757.629 1234.07 753.583 1242.71C748.777 1252.97 717.789 1257.08 701.74 1258.11C697.017 1258.41 692.452 1262.69 687.873 1264.36C656.604 1275.75 622.955 1278.73 590.247 1272.44C581.059 1270.67 571.759 1268.05 564.619 1262.68C552.8 1253.79 555.936 1220.1 566.169 1204.95C575.635 1190.93 591.12 1182.46 607.899 1180.6L620.445 1170.55L623.693 1159.45C619.396 1156.14 617.213 1151.51 617.521 1145.68L618.577 1125.69C600.875 1111.83 583.465 1093.3 592.845 1070.95L603.228 1046.21L606.796 959.193L578.9 951.677C585.472 889.106 593.357 828.842 603.292 767.53L613.892 711.06C611.483 700.592 612.536 690.013 618.692 681.281L617.581 650.664L598.447 661.818C598.217 662.698 597.025 666.54 595.908 667.16L572.101 680.35C568.948 682.097 564.824 683.086 562.549 679.833L548.925 660.344L516.945 672.644C503.945 677.644 490.76 675.52 477.724 669.877C439.736 653.433 405.631 630.474 373.172 604.832L327.705 605.436C319.208 601.214 310.464 599.717 301.225 601.057C282.704 602.765 280.748 588.112 268.097 583.328C261.4 580.796 256.035 575.656 254.548 568.649C253.241 562.49 258.141 557.421 264.612 557.27C262.368 551.966 262.499 545.61 267.775 542.856C273.413 539.912 279.303 543.268 283.349 548.309C283.899 542.482 284.983 537.261 288.795 534.943C293.251 532.235 298.931 534.056 302.365 538.534C305.652 542.82 306.388 547.76 306.991 554.497C315.056 557.402 322.351 546.853 335.645 549.306L344.928 539.628C335.387 533.946 329.429 526.57 330.928 516.089C331.355 513.098 333.672 509.388 335.573 507.917C342.325 502.696 350.448 508.246 357.728 514.872C362.493 519.208 368.017 521.857 374.392 523.044C390.053 525.96 402.056 537.09 406.519 552.264L468.095 567.47C478.709 570.092 487.353 574.098 497.787 578.894L507.647 572.854L503.916 557.216L532.976 535.998L542.256 537.088L569.313 514.709C602.205 487.504 624.867 464.41 668.584 449.964C671.331 447.124 675.059 444.648 678.929 443.52L702.424 436.668C685.964 427.65 671.32 416.945 661.369 401.485C659.827 399.089 658.511 398.15 655.697 398.617C644.365 386.69 639.412 369.456 640.157 352.866C638.161 351.253 636.004 348.484 636.092 345.941C636.735 327.478 644.191 311.429 656.275 298.07L661.679 280.452C659.56 278.362 657.509 275.981 657.353 274.344C657.175 272.472 659.829 268.824 661.613 268.282L667.373 266.536C659.976 247.048 664.981 226.694 673.7 208.004C677.428 200.01 682.769 193.733 690.656 188.854C688.8 177.205 692.664 165.654 699.989 156.614C698.777 153.161 699.413 150.17 701.804 147.521C709.087 139.449 717.745 134.066 728.071 131.238C729.745 128.621 731.825 127.966 734.897 127.297C752.573 123.448 770.743 129.457 781.976 144.609C833.903 132.041 890.604 144.825 929.333 182.716C942.245 177.969 955.555 178.711 967.611 185.082C969.879 186.281 971.784 189.074 972.707 191.569C984.979 198.76 993.141 210.088 995.919 224.298L994.02 229.262C997.837 243.816 996.189 267.017 984.109 272.585C980.656 277.978 975.889 283.023 970.269 286.207L967.608 316.262C969.115 325.341 969.789 334.053 968.743 343.241C961.753 363.514 953.581 385.005 932.716 391.732C930.179 398.534 926.58 407.761 922.087 413.473L916.619 413.805C912.244 421.823 906.593 432.118 897.417 435.61C893.716 437.019 890.303 438.576 887.149 441.813L912.213 449.222L915.509 453.502C933.827 458.729 950.655 465.964 966.82 476.421L1022.62 512.517L1030.06 510.806L1058.39 529.084L1054.69 542.164L1065.99 548.032L1093.02 531.398L1156.69 501.086C1158.11 484.33 1166.88 469.714 1181.37 460.394C1195.19 451.509 1195.17 439.921 1204.05 431.096C1206.59 428.561 1212.25 427.118 1215.24 427.952C1224.43 430.51 1227.47 442.576 1222.99 452.382L1217.92 463.466C1223.81 467.702 1228.74 466.357 1234.83 464.196C1238.43 462.922 1244.44 463.008 1247.48 460.364C1252.96 455.606 1246.38 443.748 1249.41 432.917C1251.13 426.738 1257.36 422.88 1263.2 424.62C1268.58 426.224 1270.29 432.753 1272.34 436.809C1278.1 441.78 1281.2 446.333 1281.42 455.62C1283.81 449.242 1284.65 445.296 1287.89 440.345C1289.31 438.177 1294.75 437.017 1297.54 437.654C1300.08 438.234 1302.68 442.168 1303.44 445.768C1305.74 456.648 1303.35 467.294 1300.4 477.845C1296.92 490.273 1288.39 500.47 1276.1 502.036L1253.73 519.85C1237.34 529.43 1219.11 533.974 1200.95 538.864C1168.65 576.393 1133.56 614.216 1090.81 639.061C1079.08 645.882 1066.61 648.552 1053.53 644.932L1021.51 636.069C1014.82 645.936 1007.83 655.673 998.673 663.446L970.472 652.222C967.593 651.077 965.465 648.488 964.276 645.688L943.863 636.762C944.195 649.909 942.744 664.804 945.388 678.728C947.101 687.758 948.78 695.968 943.484 704.734C947.489 706.941 949.799 708.32 952.887 710.838C973.673 702.57 996.803 702.916 1016.5 715.028C1019.01 716.573 1021.15 720.39 1020.24 723.276L1011.98 749.485C1010.6 753.874 1005.26 757.405 1000.48 756.013L978.687 749.669C996.423 767.862 1011.32 785.966 1022.5 808.272C1026.06 815.365 1013.27 814.072 998.931 828.716C997.632 830.041 994.801 831.17 993.316 830.554C982.341 804.286 970.495 778.469 953.16 755.057L974.007 859.157L990.1 948.509L968.425 957.93L980.36 1036.84L992.172 1055.96C1006.88 1079.76 997.056 1104.68 972.695 1118.28L973.919 1135.77C974.235 1140.29 973.616 1144.08 970.46 1148.6C977.613 1155.25 978.285 1164.22 979.799 1173.79C983.46 1180.5 991.165 1187.64 997.123 1192.45C1019.69 1198.71 1035.7 1216.96 1037.42 1240.11C1038.92 1260.15 1038.9 1270.5 1020.83 1277.04C985.213 1289.91 933.655 1288 900.191 1269.66L883.236 1258.05C868.441 1257.71 854.256 1253.66 842.607 1244.59C837.261 1235.55 837.225 1225.13 839.752 1215.22L842.863 1182.65Z" fill="black"/>
</g>
<mask id="mask13_914_27307" style="mask-type:luminance" maskUnits="userSpaceOnUse" x="0" y="0" width="2560" height="1440">
<path d="M0 -4.29153e-05H2560V1440H0V-4.29153e-05Z" fill="white"/>
</mask>
<g mask="url(#mask13_914_27307)">
<path d="M965.753 1178.67C953.996 1177.94 944.737 1180.01 935.529 1185.98L933.012 1186.47C932.4 1186.59 931.977 1184.11 932.005 1183.56C941.84 1177.08 952.801 1172.95 964.295 1174.55L967.132 1176.27C967.635 1176.57 966.48 1178.03 965.753 1178.67Z" fill="black"/>
</g>
<mask id="mask14_914_27307" style="mask-type:luminance" maskUnits="userSpaceOnUse" x="0" y="0" width="2560" height="1440">
<path d="M0 -4.29153e-05H2560V1440H0V-4.29153e-05Z" fill="white"/>
</mask>
<g mask="url(#mask14_914_27307)">
<path d="M943.374 1195.39C942.685 1195.74 940.081 1194.12 940.589 1193.79L943.102 1192.13C952.385 1186 964.749 1182.3 975.599 1187.91C964.037 1189.01 953.042 1190.37 943.374 1195.39Z" fill="black"/>
</g>
<mask id="mask15_914_27307" style="mask-type:luminance" maskUnits="userSpaceOnUse" x="0" y="0" width="2560" height="1440">
<path d="M0 -4.29153e-05H2560V1440H0V-4.29153e-05Z" fill="white"/>
</mask>
<g mask="url(#mask15_914_27307)">
<path d="M1315.68 333.117C1324.28 325.141 1325 310.125 1316.38 304.33C1307.4 298.298 1298.74 306.517 1294.44 301.06L1273.44 316.469L1300.17 347.501L1315.68 333.117ZM1303.65 380.953C1309.17 374.618 1308.82 366.588 1303.69 360.506L1268.26 318.478L1277.83 289.234C1242.32 305.1 1205.67 313.842 1167.73 315.934L1194.12 343.389L1186.19 389.674C1185.01 396.541 1187.05 405.573 1192.97 409.661C1199.77 414.353 1208.61 414.29 1216.88 413.326C1242.42 410.348 1288.7 398.105 1303.65 380.953ZM1191.48 309.252C1214.95 299.418 1237.8 293.766 1262.68 291.166C1268.21 290.588 1274.04 286.569 1279.12 283.125C1270.35 279.912 1262.16 280.064 1253.29 281.105C1227.73 284.105 1203.28 291.301 1179.82 301.609C1174.24 304.06 1169.29 307.018 1165.78 312.054C1174.73 311.721 1183.62 312.545 1191.48 309.252ZM1311.82 364.002C1318.3 378.125 1305.51 389.622 1291.16 396.673C1265.98 409.036 1239.16 417.18 1211.01 419.09C1201.69 419.724 1192.1 417.553 1186.08 410.808C1180.14 404.148 1179.49 394.537 1181.09 385.916L1188.78 344.641L1172.93 328.1L1161.99 316.7C1157.7 312.224 1163.44 305.028 1168.78 302.176C1197.2 287.002 1247.73 271.25 1277.9 277.308C1283.12 278.357 1285.44 283.009 1283.84 287.606L1276.82 307.769L1292.96 296.626C1300.95 291.106 1311.44 291.356 1319.61 297.652C1329.86 305.542 1331.3 320.592 1324.24 331.614L1311.6 347.165C1309.16 346.533 1306.85 345.97 1305.6 346.384C1304.34 346.796 1302.73 350.192 1303.21 351.352C1305.87 354.789 1310 360.04 1311.82 364.002Z" fill="black"/>
</g>
<mask id="mask16_914_27307" style="mask-type:luminance" maskUnits="userSpaceOnUse" x="0" y="0" width="2560" height="1440">
<path d="M0 -4.29153e-05H2560V1440H0V-4.29153e-05Z" fill="white"/>
</mask>
<g mask="url(#mask16_914_27307)">
<path d="M1231.46 486.975L1198.45 487.115C1208.05 480.087 1221.55 480.922 1231.46 486.975Z" fill="black"/>
</g>
<mask id="mask17_914_27307" style="mask-type:luminance" maskUnits="userSpaceOnUse" x="0" y="0" width="2560" height="1440">
<path d="M0 -4.29153e-05H2560V1440H0V-4.29153e-05Z" fill="white"/>
</mask>
<g mask="url(#mask17_914_27307)">
<path d="M372.499 554.053L346.98 564.689C352.718 556.059 363.414 550.948 372.499 554.053Z" fill="black"/>
</g>
<mask id="mask18_914_27307" style="mask-type:luminance" maskUnits="userSpaceOnUse" x="0" y="0" width="2560" height="1440">
<path d="M0 -4.29153e-05H2560V1440H0V-4.29153e-05Z" fill="white"/>
</mask>
<g mask="url(#mask18_914_27307)">
<path d="M1197.86 399.053C1208.25 402.64 1218.61 400.777 1224.76 391.367C1231.49 381.072 1229.31 367.609 1239.25 365.803C1228.25 376.181 1233.12 391.859 1219.67 399.341C1212.85 403.136 1203.86 405.255 1197.86 399.053Z" fill="black"/>
</g>
<mask id="mask19_914_27307" style="mask-type:luminance" maskUnits="userSpaceOnUse" x="0" y="0" width="2560" height="1440">
<path d="M0 -4.29153e-05H2560V1440H0V-4.29153e-05Z" fill="white"/>
</mask>
<g mask="url(#mask19_914_27307)">
<path d="M1297.53 373.24C1293.27 378.733 1285.6 381.565 1278.18 381.149C1273.3 380.877 1268.91 376.993 1265.57 373.943L1257 366.104L1260.39 366.305C1264.25 369.929 1269.94 376.131 1274.99 378.131C1283.03 381.308 1290 375.811 1297.53 373.24Z" fill="black"/>
</g>
</g>
<defs>
<clipPath id="clip0_914_27307">
<rect width="1487" height="1440" fill="white"/>
</clipPath>
</defs>
</svg>
