<?xml version="1.0" encoding="UTF-8"?>
<svg id="Layer_2" data-name="Layer 2" xmlns="http://www.w3.org/2000/svg" viewBox="0 0 729.4 396.54">
  <defs>
    <style>
      .cls-1 {
        stroke: #1e1005;
        stroke-miterlimit: 10;
        stroke-width: 1.63px;
      }

      .cls-1, .cls-2, .cls-3, .cls-4 {
        fill: #080907;
      }

      .cls-3 {
        font-family: MyriadPro-Regular, 'Myriad Pro';
        font-size: 60.67px;
      }

      .cls-4 {
        font-family: PaykanVF-Regular, 'Paykan VF';
        font-size: 56.71px;
        font-variation-settings: 'wght' 400;
      }
    </style>
  </defs>
  <g id="Layer_1-2" data-name="Layer 1">
    <g>
      <text class="cls-4" transform="translate(154.41 365.41)"><tspan x="0" y="0">HEALTHY FOOD</tspan></text>
      <text class="cls-3" transform="translate(675.63 68.48)"><tspan x="0" y="0">™</tspan></text>
      <g>
        <g>
          <path class="cls-2" d="M272.41,84.4c-51.47,0-93.19,41.72-93.19,93.19s41.72,93.19,93.19,93.19,93.19-41.73,93.19-93.19-41.73-93.19-93.19-93.19ZM338.16,206.23c-2.16,25.09-17.51,48.08-43.59,51.48-30.07,3.92-59.92-11.08-73.97-38.13-10.85-20.9-15.55-44.44-13.72-67.88,2.13-27.31,19.1-52.06,47.86-54.38,31.27-2.53,58.28,15.51,71.37,43.2,9.73,20.57,14.01,43.05,12.05,65.7Z"/>
          <path class="cls-2" d="M131.38,88.76l40.93-.02c.68,0,2.14.66,2.28,1.25.15.58-.14,2.23-.63,2.83-5.03,6.15-9.88,13.35-13.27,21.35l-35.7,84.5c-9.36,22.16-17.38,44.11-24.1,67.33-6.42.94-18,1.48-21.02-5.64l-31.22-73.37-25.77-59.18c-5.71-13.11-13.22-24.51-22.32-35.39-.36-.43-.7-1.83-.53-2.33s1.61-1.35,2.46-1.35l48.07-.06c.69,0,2.19.64,2.62,1.07.52.52.5,2.27.11,2.93-6.22,10.68-2.86,22.51,1.07,33.49l33.16,79.86c4.55,10.95,8.86,21.11,14.3,32.13,10.01-26.69,18.75-52.92,26.38-80.07,3.53-12.58,5.43-24.93,5.76-37.87.49-19.39-5.46-26-5.45-29.57,0-.75,1.73-1.91,2.85-1.91Z"/>
        </g>
        <path class="cls-2" d="M521.13,115.74c-15.86,23.61-30.29,47.24-44.44,71.5-2.79,4.78-3.69,9.38-3.62,14.75.29,21.8-2.19,42.68,9.86,61.36-.84,1.77-3.16,2.86-5.16,2.87h-37.36c-1.87,0-3.9-.95-5.61-2.22,5.64-9.88,8.88-19.97,9.02-31.3l.4-32.71c.03-2.71-.55-5.28-2-7.6l-40.72-65.2c-7.92-12.68-16.38-24.14-26.98-34.51-.46-.45-.91-2.13-.59-2.66s1.72-1.3,2.5-1.3l48.23.03c.72,0,1.91.54,2.31.92,2.67,2.56-5.54,8.96.31,23.27,3.8,9.3,8.48,17.65,13.69,26.31l27.36,45.63c13.12-21.48,25.97-44.24,30.43-68.65,1.04-7.78,1.16-15.34-2.57-22.29-.44-.83-.92-2.51-.85-3.34.07-.93,2.09-1.87,3.37-1.87l39.67.03c.76,0,2.16.94,2.42,1.45.3.61-.2,2.1-.75,2.65-7.16,7.06-13.08,14.18-18.92,22.88Z"/>
        <path class="cls-2" d="M728.48,261.68c-6.47-6.12-12.48-13.27-17.19-21.08-5.47-9.07-10.2-17.88-14.57-27.54l-21.99-48.62-30.04-66.43c-1.55-3.42-3.32-6.04-5.54-9.26l-19.57-.07c-3.45-.01-1.06,5.93-3.35,13.58-2.15,7.17-4.56,13.67-7.52,20.62l-34.2,80.14-18.07,42.18c-2.57,6.02-5.42,11.16-9.19,16.51-.45.64-.81,2.37-.46,3.03.35.65,2.09,1.6,2.9,1.6l42.16.05c.87,0,2.66-.85,2.88-1.61.68-2.38-6.37-15.18-6.3-29.47.05-13.68,1.77-27.03,5.28-40.13h-.04l3.97-18.11c4.04-22.23,12.08-43.72,21.94-64.57,6.58,13.03,12,25.2,17.67,38.04l11.24,25.43c.05.11.07.23.08.36l8.34,18.86h-.07l13.62,30.68c2.95,6.65,4.78,13.51,6.31,20.56,1.4,6.4-.07,11.61-3.39,17.93,3.76,1.15,7.41,1.85,11.11,1.84l33.36-.03c1.49,0,15.2-.18,10.63-4.5Z"/>
      </g>
      <g>
        <g>
          <path class="cls-2" d="M17.15,54.36H4.03c-.27,0-.8-.24-.9-.45-.12-.25.03-.78.21-1.09,1.34-2.18,2.05-4.64,2.32-7.23.21-2.02.41-3.99.41-6.09l.02-23.55C6.1,4.68,1.44,2.3,1.99.77c.08-.22.56-.48.84-.48h15.81c6-.63,12.21-.43,17.58,2.48,2.29,1.24,4.32,2.82,5.73,5.06,2.68,4.29,3.22,9.61,1.58,14.39-1.17,3.41-3.53,5.98-6.49,7.92-6.03,3.82-15.42,4.29-21.8.66v11.1s.29,3.14.29,3.14c.29,3.01,1.18,5.68,2.69,8.29.2.35-.58,1.01-1.07,1.01ZM28.88,29.26c2.22-1.24,3.44-3.29,4.46-5.45,2.85-7.85.58-18.36-8.55-20.66-2.99-.75-8.24-.95-9.11,2.86-.25,1.67-.44,3.36-.44,5.13l-.02,17.08c3.96,2.96,9.29,3.47,13.65,1.04Z"/>
          <path class="cls-2" d="M118.7,54.35h-12.91c-.28,0-.82-.24-.96-.45-.16-.24.03-.83.23-1.15,1.37-2.2,1.97-4.7,2.25-7.32.14-1.34.32-2.71.32-4.13l.04-24.16c0-5.9-.45-10.56-3.96-15.33-.13-.17-.18-.74-.15-.95s.41-.56.64-.56l16.2-.08c3.04-.02,5.91-.4,8.91-.02,8.55,1.06,15.73,5.51,16.71,14.73.66,6.21-2.06,11.99-7.42,15.25-5.93,3.87-15.49,4.16-21.79.62l.1,11.79c.06,6.65,3,10.5,2.82,11.11-.07.25-.66.66-1.03.66ZM130.56,29.16c2.27-1.34,3.69-3.57,4.54-5.94,2.61-7.33.48-17.38-8.24-19.93-3.11-.91-8.66-1.22-9.6,2.72-.26,1.89-.43,3.76-.43,5.73l.02,16.46c3.99,2.98,9.37,3.53,13.71.97Z"/>
          <path class="cls-2" d="M167.75,7.66c-1.78,2.93-4.97,11.76-5.65,14.8l-2.79,12.37c-.67,2.98-.98,5.82-1.12,8.9-.27,5.97,2.3,9.23,1.94,10.21-.07.19-.49.43-.72.43h-13.02c-.22,0-.67-.26-.75-.45-.39-.88,1.36-2.57,2.09-4.27l10.32-24.02,7.04-16.58c1.21-2.84,2.03-5.5,2.12-8.69h6.49c1.08,1.65,1.8,3.13,2.6,4.9l14.83,32.74c1.64,3.62,3.38,6.95,5.57,10.22,1.3,1.93,2.84,3.44,4.56,5.12-.45.63-1.29,1.03-2.1,1.03l-11.78.02c-1.12,0-2.19-.25-3.34-.67.96-1.51,1.43-2.89,1.18-4.59-.35-2.4-.92-4.69-1.92-6.95l-12.01-27.06c-1.12-2.53-2.15-4.75-3.54-7.43Z"/>
          <path class="cls-2" d="M65.16,7.69c-1.41,2.52-2.28,5.02-3.29,7.69-1.44,3.83-2.52,7.61-3.39,11.61l-1.89,8.68c-.62,2.86-.89,5.7-.96,8.63-.14,5.65,2.29,8.72,1.93,9.6-.09.23-.61.45-.91.45h-12.64c-.22,0-.66-.19-.8-.33-.72-.78,1.37-2.88,2.19-4.8l9.81-22.88,7.57-18.01c1.1-2.61,1.71-5.07,1.82-7.99h6.54c1.15,1.8,1.93,3.43,2.79,5.35l15.07,33.23c1.49,3.29,3.1,6.32,5.12,9.29,1.32,1.93,2.9,3.41,4.62,5.1-.51.68-1.34,1.05-2.15,1.05l-11.78.02c-1.12,0-2.2-.23-3.33-.66.9-1.46,1.3-2.77,1.12-4.41-.33-3-1.19-5.76-2.44-8.54l-13.05-29.11c-.62-1.38-1.14-2.44-1.97-3.95Z"/>
        </g>
        <line class="cls-1" x1="57.31" y1="30.52" x2="76.2" y2="30.52"/>
        <line class="cls-1" x1="159.28" y1="30.52" x2="178.17" y2="30.52"/>
      </g>
    </g>
  </g>
</svg>